<svg width="40" height="40" viewBox="0 0 40 40" fill="none" xmlns="http://www.w3.org/2000/svg">
<rect width="40" height="40" rx="8" fill="white"/>
<path fill-rule="evenodd" clip-rule="evenodd" d="M11.118 20.467C10.961 20.176 10.961 19.823 11.118 19.532C13.01 16.033 16.505 13 20 13C23.495 13 26.99 16.033 28.882 19.533C29.039 19.824 29.039 20.177 28.882 20.468C26.99 23.967 23.495 27 20 27C16.505 27 13.01 23.967 11.118 20.467Z" stroke="#666666" stroke-width="1.5" stroke-linecap="round" stroke-linejoin="round"/>
<path fill-rule="evenodd" clip-rule="evenodd" d="M22.1213 17.8787C23.2929 19.0503 23.2929 20.9498 22.1213 22.1213C20.9497 23.2929 19.0502 23.2929 17.8787 22.1213C16.7071 20.9498 16.7071 19.0503 17.8787 17.8787C19.0502 16.7071 20.9497 16.7071 22.1213 17.8787Z" stroke="#666666" stroke-width="1.5" stroke-linecap="round" stroke-linejoin="round"/>
</svg>
